<svg width="33" height="36" viewBox="0 0 33 36" fill="none" xmlns="http://www.w3.org/2000/svg">
<path d="M32.136 17.8538C32.1358 19.1078 31.2996 20.0902 30.3521 20.0902H28.5685L28.6056 31.2442C28.6055 31.4393 28.5944 31.6204 28.5776 31.8085L28.5774 32.9372C28.5771 34.4769 27.5792 35.7239 26.3474 35.7239H25.4557C25.3943 35.7239 25.333 35.6612 25.2717 35.717C25.1937 35.6612 25.1157 35.7239 25.0376 35.7239H21.8885C20.6567 35.7239 19.6592 34.4769 19.6595 32.9372L19.6605 26.8063C19.6607 25.5731 18.8639 24.5769 17.8773 24.5769H14.3101C13.3236 24.5769 12.5264 25.5731 12.5262 26.8063L12.5251 32.9372C12.5248 34.4769 11.5269 35.7239 10.2951 35.7239H7.17944C7.09584 35.7239 7.01223 35.717 6.92863 35.71C6.86174 35.717 6.79485 35.7239 6.72797 35.7239H5.83618C4.60494 35.7239 3.6069 34.4769 3.60717 32.9372L3.60851 25.1342C3.60852 25.0715 3.61021 25.0019 3.61356 24.9391L3.6144 20.0902H1.82858C0.823639 20.0902 0.0423735 19.1078 0.0425895 17.8538C0.0426974 17.2268 0.210228 16.6694 0.600806 16.1817L14.8939 0.611812C15.2842 0.123153 15.7301 0.0533447 16.1202 0.0533447C16.5104 0.0533447 16.9563 0.192962 17.2962 0.542004L31.5232 16.1817C31.969 16.6694 32.1975 17.2268 32.136 17.8538Z" fill="white"/>
</svg>
