<svg width="33" height="33" viewBox="0 0 33 33" fill="none" xmlns="http://www.w3.org/2000/svg">
<path d="M10.3921 27.6157H6.37914C5.2712 27.6157 4.37238 26.6173 4.372 25.3863L4.36653 7.55101C4.36615 6.31996 5.26436 5.3216 6.37231 5.3216H10.3852C11.4932 5.3216 12.3914 4.32325 12.391 3.0922C12.3906 1.86115 11.4937 0.862793 10.3839 0.862793H6.37094C3.04649 0.862793 0.352481 3.85716 0.353614 7.55101L0.359083 25.3863C0.360216 29.0801 3.05606 32.0745 6.38051 32.0745H10.3934C11.5014 32.0745 12.3996 31.0761 12.3992 29.8451C12.3988 28.614 11.5019 27.6157 10.3921 27.6157ZM31.8698 14.8941L23.8412 5.97649C23.0566 5.10493 21.7869 5.10633 21.004 5.97649C20.2205 6.84735 20.2209 8.25815 21.0049 9.12901L25.612 14.2392H12.3944C11.2846 14.2392 10.3883 15.2355 10.3886 16.4686C10.389 17.7018 11.2866 18.698 12.3958 18.698H25.6133L21.0138 23.8103C20.2303 24.6812 20.2308 26.092 21.0148 26.9629C21.7988 27.8337 23.0686 27.8337 23.8521 26.9629L31.8752 18.0452C32.6543 17.1723 32.6538 15.765 31.8698 14.8941Z" fill="#FDFDFF"/>
</svg>
